<?xml version="1.0" encoding="iso-8859-1"?>
<!-- Generator: Adobe Illustrator 19.0.0, SVG Export Plug-In . SVG Version: 6.00 Build 0)  -->
<svg version="1.1" id="Capa_1" xmlns="http://www.w3.org/2000/svg" xmlns:xlink="http://www.w3.org/1999/xlink" x="0px" y="0px"
	 viewBox="0 0 511.999 511.999" style="enable-background:new 0 0 511.999 511.999;" xml:space="preserve">
<path style="fill:#EAEAF1;" d="M435.338,437.423c-24.837,0-45.043-20.206-45.043-45.043c0-24.838,20.206-45.044,45.043-45.044
	v-18.468H140.174l-40.99,15.975l-21.498,47.537l7.387,34.78l34.826,26.384h294.439L435.338,437.423z"/>
<path style="fill:#7C503F;" d="M404.885,0H140.174l-40.66,164.434l40.66,164.434h295.163V30.452C435.338,13.634,421.704,0,404.885,0
	z"/>
<g>
	<polygon style="fill:#FFBA40;" points="334.927,73.098 306.225,73.098 306.225,41.594 269.287,41.594 269.287,73.098 
		240.583,73.098 240.583,110.035 269.287,110.035 269.287,177.419 306.225,177.419 306.225,110.035 334.927,110.035 	"/>
	<path style="fill:#FFBA40;" d="M360.609,230.065H214.903c-4.268,0-7.726-3.459-7.726-7.726s3.458-7.726,7.726-7.726H360.61
		c4.268,0,7.726,3.459,7.726,7.726S364.877,230.065,360.609,230.065z"/>
	<path style="fill:#FFBA40;" d="M350.307,263.726H225.205c-4.268,0-7.726-3.459-7.726-7.726c0-4.267,3.458-7.726,7.726-7.726
		h125.103c4.268,0,7.726,3.459,7.726,7.726C358.034,260.267,354.575,263.726,350.307,263.726z"/>
</g>
<path style="fill:#8A644F;" d="M88.646,0C71.827,0,58.194,13.634,58.194,30.452v361.928l81.98-81.981V0H88.646z"/>
<path style="fill:#CCCDD9;" d="M77.686,373.091h316.957c7.239-15.212,22.757-25.755,40.695-25.755v-18.468H140.174l-40.99,15.975
	L77.686,373.091z"/>
<path style="fill:#6E4D40;" d="M435.338,474.36H140.174c-45.203,0-81.98-36.776-81.98-81.98c0-45.204,36.776-81.981,81.98-81.981
	h295.163c10.2,0,18.468,8.268,18.468,18.468s-8.268,18.468-18.468,18.468H140.174c-24.837,0-45.043,20.206-45.043,45.044
	c0,24.837,20.206,45.043,45.043,45.043h295.163c10.2,0,18.468,8.268,18.468,18.468S445.538,474.36,435.338,474.36z"/>
<path style="fill:#F0484A;" d="M140.174,392.381v112.658c0,5.733,6.552,9,11.13,5.55l26.448-19.929l26.448,19.929
	c4.579,3.45,11.13,0.183,11.13-5.55V392.381H140.174z"/>
<rect x="140.177" y="392.375" style="fill:#E33D41;" width="75.157" height="31.677"/>
<g>
</g>
<g>
</g>
<g>
</g>
<g>
</g>
<g>
</g>
<g>
</g>
<g>
</g>
<g>
</g>
<g>
</g>
<g>
</g>
<g>
</g>
<g>
</g>
<g>
</g>
<g>
</g>
<g>
</g>
</svg>
